<?xml version="1.0" encoding="UTF-8" standalone="no"?>
<!DOCTYPE svg PUBLIC "-//W3C//DTD SVG 1.1//EN"
 "http://www.w3.org/Graphics/SVG/1.1/DTD/svg11.dtd">
<!-- Generated by graphviz version 2.40.1 (20161225.0304)
 -->
<!-- Title: G Pages: 1 -->
<svg width="249pt" height="434pt"
 viewBox="0.00 0.00 249.00 434.00" xmlns="http://www.w3.org/2000/svg" xmlns:xlink="http://www.w3.org/1999/xlink">
<g id="graph0" class="graph" transform="scale(1 1) rotate(0) translate(4 430)">
<title>G</title>
<polygon fill="#ffffff" stroke="transparent" points="-4,4 -4,-430 245,-430 245,4 -4,4"/>
<!-- A0 -->
<g id="node1" class="node">
<title>A0</title>
<polygon fill="none" stroke="#000000" points=".5,-62 .5,-94 91.5,-94 91.5,-62 .5,-62"/>
<text text-anchor="start" x="17.1005" y="-75" font-family="Helvetica,sans-Serif" font-size="10.00" fill="#000000">Parqueadero</text>
<polygon fill="none" stroke="#000000" points=".5,-6 .5,-62 91.5,-62 91.5,-6 .5,-6"/>
<text text-anchor="start" x="10.1565" y="-43" font-family="Helvetica,sans-Serif" font-size="10.00" fill="#000000">Puesto:Puesto()</text>
<text text-anchor="start" x="31.8335" y="-31" font-family="Helvetica,sans-Serif" font-size="10.00" fill="#000000">Tarifa:</text>
<text text-anchor="start" x="25.4385" y="-19" font-family="Helvetica,sans-Serif" font-size="10.00" fill="#000000">Ingresos:</text>
</g>
<!-- A1 -->
<g id="node2" class="node">
<title>A1</title>
<polygon fill="none" stroke="#000000" points="141,-56 141,-100 241,-100 241,-56 141,-56"/>
<text text-anchor="start" x="166.819" y="-81" font-family="Helvetica,sans-Serif" font-size="10.00" fill="#000000">&lt;&lt;enum&gt;&gt;</text>
<text text-anchor="start" x="170.439" y="-69" font-family="Helvetica,sans-Serif" font-size="10.00" fill="#000000">Vehiculo </text>
<polygon fill="none" stroke="#000000" points="141,0 141,-56 241,-56 241,0 141,0"/>
<text text-anchor="start" x="162.386" y="-37" font-family="Helvetica,sans-Serif" font-size="10.00" fill="#000000">&#45;Placa:String</text>
<text text-anchor="start" x="157.1075" y="-25" font-family="Helvetica,sans-Serif" font-size="10.00" fill="#000000">&#45;Modelo: String</text>
<text text-anchor="start" x="150.7195" y="-13" font-family="Helvetica,sans-Serif" font-size="10.00" fill="#000000">&#45;Propietario:String</text>
</g>
<!-- A0&#45;&gt;A1 -->
<g id="edge1" class="edge">
<title>A0&#45;&gt;A1</title>
<path fill="none" stroke="#000000" d="M103.3316,-50C112.3803,-50 121.7508,-50 130.85,-50"/>
<polygon fill="none" stroke="#000000" points="103.1379,-50.0001 97.1379,-54 91.1379,-50 97.1379,-46 103.1379,-50.0001"/>
<polygon fill="#000000" stroke="#000000" points="140.9765,-50 130.9765,-54.5001 135.9765,-50 130.9765,-50.0001 130.9765,-50.0001 130.9765,-50.0001 135.9765,-50 130.9764,-45.5001 140.9765,-50 140.9765,-50"/>
<text text-anchor="middle" x="122.8503" y="-55.4524" font-family="Helvetica,sans-Serif" font-size="10.00" fill="#000000">*</text>
<text text-anchor="middle" x="109.2641" y="-38.5476" font-family="Helvetica,sans-Serif" font-size="10.00" fill="#000000">1</text>
</g>
<!-- A2 -->
<g id="node3" class="node">
<title>A2</title>
<polygon fill="none" stroke="#000000" points="12.5,-144 12.5,-176 79.5,-176 79.5,-144 12.5,-144"/>
<text text-anchor="start" x="33.5025" y="-157" font-family="Helvetica,sans-Serif" font-size="10.00" fill="#000000">Carro</text>
<polygon fill="none" stroke="#000000" points="12.5,-112 12.5,-144 79.5,-144 79.5,-112 12.5,-112"/>
<text text-anchor="start" x="22.39" y="-125" font-family="Helvetica,sans-Serif" font-size="10.00" fill="#000000">TarifaHora</text>
</g>
<!-- A3 -->
<g id="node4" class="node">
<title>A3</title>
<polygon fill="none" stroke="#000000" points="24.5,-234 24.5,-266 66.5,-266 66.5,-234 24.5,-234"/>
<text text-anchor="start" x="34.387" y="-247" font-family="Helvetica,sans-Serif" font-size="10.00" fill="#000000">Moto</text>
<polygon fill="none" stroke="#000000" points="24.5,-214 24.5,-234 66.5,-234 66.5,-214 24.5,-214"/>
<polygon fill="none" stroke="#000000" points="24.5,-194 24.5,-214 66.5,-214 66.5,-194 24.5,-194"/>
</g>
<!-- A4 -->
<g id="node5" class="node">
<title>A4</title>
<polygon fill="none" stroke="#000000" points="2.5,-340 2.5,-372 89.5,-372 89.5,-340 2.5,-340"/>
<text text-anchor="start" x="27.9375" y="-353" font-family="Helvetica,sans-Serif" font-size="10.00" fill="#000000">Puestos</text>
<polygon fill="none" stroke="#000000" points="2.5,-284 2.5,-340 89.5,-340 89.5,-284 2.5,-284"/>
<text text-anchor="start" x="12.1075" y="-321" font-family="Helvetica,sans-Serif" font-size="10.00" fill="#000000">Disponibilidad: </text>
<text text-anchor="start" x="24.329" y="-297" font-family="Helvetica,sans-Serif" font-size="10.00" fill="#000000">Posicion: </text>
</g>
<!-- A5 -->
<g id="node6" class="node">
<title>A5</title>
<polygon fill="none" stroke="#000000" points="90.1686,-426 .8314,-426 .8314,-390 90.1686,-390 90.1686,-426"/>
<text text-anchor="middle" x="45.5" y="-405" font-family="Helvetica,sans-Serif" font-size="10.00" fill="#000000">Administrador</text>
</g>
</g>
</svg>
